C:\Users\israe\Dropbox\PhDWork\ExperimentalData\subject7\055\P7S055W02_filtered35.mot
nRows=11
nColumns=28

name C:\Users\israe\Dropbox\PhDWork\ExperimentalData\subject7\055\P7S055W02_filtered35.mot
datacolumns 28
datarows 11
range 1.8800000000 1.8900000000
endheader
time	ground_force_1_vx	ground_force_1_vy	ground_force_1_vz	ground_force_1_px	ground_force_1_py	ground_force_1_pz	ground_moment_1_mx	ground_moment_1_my	ground_moment_1_mz	ground_force_2_vx	ground_force_2_vy	ground_force_2_vz	ground_force_2_px	ground_force_2_py	ground_force_2_pz	ground_moment_2_mx	ground_moment_2_my	ground_moment_2_mz	ground_force_3_vx	ground_force_3_vy	ground_force_3_vz	ground_force_3_px	ground_force_3_py	ground_force_3_pz	ground_moment_3_mx	ground_moment_3_my	ground_moment_3_mz
        1.8800000000	       -0.8498735880	       11.2218280494	       -4.8566210303	        0.1988394961	        0.0000558755	       -0.3004071324	       -3.4148211563	       -0.4184396527	       -0.5094330864	      -10.4603691922	      593.6923227966	      -90.2229922884	        0.2029003516	       -0.0000795827	        0.4543649445	      -16.1031373530	        2.6272483259	        7.3330167576	        0.0000000000	        0.0000000000	        0.0000000000	        0.2076431971	        0.0000770316	        1.3583900146	       -0.0000000000	       -0.0000000000	        0.0000000000	
        1.8810000000	       -1.2465848390	       16.0799959610	       -5.7112999487	        0.1988394961	        0.0000558755	       -0.3004071324	       -4.8712778799	       -0.5621740279	       -0.7012682211	      -10.3244496868	      592.5235211718	      -90.6221846450	        0.2029003516	       -0.0000795827	        0.4543649445	      -15.9888709194	        2.6261712087	        7.3031704356	        0.0000000000	        0.0000000000	        0.0000000000	        0.2076431971	        0.0000770316	        1.3583900146	       -0.0000000000	       -0.0000000000	        0.0000000000	
        1.8820000000	       -1.7163692547	       21.7631889593	       -6.4470200785	        0.1988394961	        0.0000558755	       -0.3004071324	       -6.5703072667	       -0.7221094811	       -0.9195747851	      -10.1764866386	      591.3478103590	      -91.0064370214	        0.2029003516	       -0.0000795827	        0.4543649445	      -15.8764156690	        2.6252857589	        7.2743579463	       -0.0000000000	        0.0000000000	       -0.0000000000	        0.2076431971	        0.0000770316	        1.3583900146	        0.0000000000	        0.0000000000	       -0.0000000000	
        1.8830000000	       -2.2531602333	       28.1923368180	       -6.9618759259	        0.1988394961	        0.0000558755	       -0.3004071324	       -8.4861214579	       -0.8922171315	       -1.1589538246	      -10.0178806203	      590.1556044029	      -91.3765546706	        0.2029003516	       -0.0000795827	        0.4543649445	      -15.7661042877	        2.6245762298	        7.2464895247	       -0.0000000000	        0.0000000000	       -0.0000000000	        0.2076431971	        0.0000770316	        1.3583900146	        0.0000000000	        0.0000000000	       -0.0000000000	
        1.8840000000	       -2.8485473220	       35.2686505556	       -7.1631263106	        0.1988394961	        0.0000558755	       -0.3004071324	      -10.5872155026	       -1.0662480223	       -1.4129792200	       -9.8493287326	      588.9341067183	      -91.7335518943	        0.2029003516	       -0.0000795827	        0.4543649445	      -15.6581341035	        2.6241091322	        7.2194387247	       -0.0000000000	        0.0000000000	       -0.0000000000	        0.2076431971	        0.0000770316	        1.3583900146	        0.0000000000	        0.0000000000	       -0.0000000000	
        1.8850000000	       -3.4960755319	       42.8835416016	       -6.9818506827	        0.1988394961	        0.0000558755	       -0.3004071324	      -12.8406970220	       -1.2399919295	       -1.6749118363	       -9.6718668754	      587.6698914750	      -92.0773991975	        0.2029003516	       -0.0000795827	        0.4543649445	      -15.5520727498	        2.6239647901	        7.1931600269	       -0.0000000000	        0.0000000000	       -0.0000000000	        0.2076431971	        0.0000770316	        1.3583900146	        0.0000000000	        0.0000000000	       -0.0000000000	
        1.8860000000	       -4.1936287901	       50.9136946915	       -6.3728993809	        0.1988394961	        0.0000558755	       -0.3004071324	      -15.2105912740	       -1.4111738235	       -1.9380114874	       -9.4870439796	      586.3519135379	      -92.4066535493	        0.2029003516	       -0.0000795827	        0.4543649445	      -15.4467358130	        2.6240994930	        7.1675991367	       -0.0000000000	        0.0000000000	       -0.0000000000	        0.2076431971	        0.0000770316	        1.3583900146	        0.0000000000	        0.0000000000	       -0.0000000000	
        1.8870000000	       -4.9413118846	       59.2244049759	       -5.3105864583	        0.1988394961	        0.0000558755	       -0.3004071324	      -17.6566726090	       -1.5787386226	       -2.1959681332	       -9.2962889424	      584.9721968593	      -92.7204099336	        0.2029003516	       -0.0000795827	        0.4543649445	      -15.3406779932	        2.6242522887	        7.1425381395	       -0.0000000000	        0.0000000000	       -0.0000000000	        0.2076431971	        0.0000770316	        1.3583900146	        0.0000000000	        0.0000000000	       -0.0000000000	
        1.8880000000	       -5.7368213826	       67.6809031359	       -3.7876826510	        0.1988394961	        0.0000558755	       -0.3004071324	      -20.1369627907	       -1.7430577154	       -2.4433779248	       -9.1007914531	      583.5237504276	      -93.0193407535	        0.2029003516	       -0.0000795827	        0.4543649445	      -15.2328238169	        2.6240525283	        7.1176036296	       -0.0000000000	        0.0000000000	       -0.0000000000	        0.2076431971	        0.0000770316	        1.3583900146	        0.0000000000	        0.0000000000	       -0.0000000000	
        1.8890000000	       -6.5734529879	       76.1569043168	       -1.8158717232	        0.1988394961	        0.0000558755	       -0.3004071324	      -22.6117818010	       -1.9049702469	       -2.6759318453	       -8.9019820024	      581.9983265604	      -93.3045153049	        0.2029003516	       -0.0000795827	        0.4543649445	      -15.1225902873	        2.6231957582	        7.0924485437	       -0.0000000000	        0.0000000000	       -0.0000000000	        0.2076431971	        0.0000770316	        1.3583900146	        0.0000000000	        0.0000000000	       -0.0000000000	
        1.8900000000	       -7.4422150137	       84.5387062284	        0.5743522002	        0.1988394961	        0.0000558755	       -0.3004071324	      -25.0466697648	       -2.0644445014	       -2.8903883245	       -8.7018191622	      580.3871430284	      -93.5764981473	        0.2029003516	       -0.0000795827	        0.4543649445	      -15.0096198475	        2.6214807191	        7.0668801375	       -0.0000000000	        0.0000000000	       -0.0000000000	        0.2076431971	        0.0000770316	        1.3583900146	        0.0000000000	        0.0000000000	       -0.0000000000	
